<svg xmlns="http://www.w3.org/2000/svg" viewBox="0 0 128 128" fill="none">
  <!-- Blueprint / design desk isometric -->
  <g stroke="#8d6e4a" stroke-width="2" stroke-linejoin="round">
    <path fill="#e53935" d="M28 42 L64 24 L100 42 L64 60 Z"/>
    <path fill="#f0c14a" d="M28 42 L28 58 L64 76 L64 60 Z"/>
    <path fill="#e8b923" d="M100 42 L100 58 L64 76 L64 60 Z"/>
    <path fill="#f5f0e8" d="M40 50 L64 38 L88 50 L64 62 Z"/>
    <path fill="#c9a227" d="M48 54 L48 66 L64 74 L64 62 Z"/>
    <path fill="#d4af37" d="M80 54 L80 66 L64 74 L64 62 Z"/>
    <rect x="56" y="78" width="16" height="6" rx="1" fill="#f5f0e8" transform="skewX(-20)"/>
    <path fill="#f5f0e8" d="M52 82 L76 82 L72 92 L48 92 Z"/>
    <path fill="#e53935" d="M36 70 L44 66 L48 72 L40 76 Z"/>
  </g>
</svg>
