<svg xmlns="http://www.w3.org/2000/svg" viewBox="0 0 128 128" fill="none">
  <!-- Engineering / structure -->
  <g stroke="#8d6e4a" stroke-width="2" stroke-linejoin="round">
    <path fill="#e53935" d="M32 36 L64 18 L96 36 L64 54 Z"/>
    <path fill="#f0c14a" d="M40 48 L40 90 L64 104 L64 62 Z"/>
    <path fill="#e8b923" d="M88 48 L88 90 L64 104 L64 62 Z"/>
    <path fill="#f5f0e8" d="M48 58 L48 70 L56 74 L56 62 Z"/>
    <path fill="#f5f0e8" d="M72 54 L80 50 L80 62 L72 66 Z"/>
    <path fill="#8d6e4a" d="M44 78 L84 56"/>
    <path fill="#8d6e4a" d="M44 88 L84 66"/>
    <circle cx="48" cy="80" r="3" fill="#e53935"/>
    <circle cx="80" cy="62" r="3" fill="#e53935"/>
    <path fill="#e8b923" d="M36 94 L64 110 L92 94 L64 78 Z"/>
  </g>
</svg>
